<svg width="176" height="50" viewBox="0 0 176 50" fill="none" xmlns="http://www.w3.org/2000/svg">
<path d="M44.9558 33.5208L42.6851 17.5625C42.1018 13.4583 38.5812 10.4166 34.4356 10.4166H15.5617C11.4161 10.4166 7.89542 13.4583 7.31212 17.5625L5.04141 33.5208C4.58311 36.7291 7.06213 39.5833 10.2911 39.5833C11.7077 39.5833 13.041 39.0208 14.0409 38.0208L18.749 33.3333H31.2483L35.9355 38.0208C36.9354 39.0208 38.2895 39.5833 39.6853 39.5833C42.9351 39.5833 45.4141 36.7291 44.9558 33.5208ZM22.9154 22.9166H18.749V27.0833H16.6658V22.9166H12.4993V20.8333H16.6658V16.6666H18.749V20.8333H22.9154V22.9166ZM31.2483 20.8333C30.1025 20.8333 29.165 19.8958 29.165 18.75C29.165 17.6041 30.1025 16.6666 31.2483 16.6666C32.394 16.6666 33.3315 17.6041 33.3315 18.75C33.3315 19.8958 32.394 20.8333 31.2483 20.8333ZM35.4147 27.0833C34.2689 27.0833 33.3315 26.1458 33.3315 25C33.3315 23.8541 34.2689 22.9166 35.4147 22.9166C36.5605 22.9166 37.4979 23.8541 37.4979 25C37.4979 26.1458 36.5605 27.0833 35.4147 27.0833Z" fill="#2A7AE4"/>
<path d="M128.081 32C126.664 33.4167 125.015 34.125 123.131 34.125C121.965 34.125 120.865 33.8917 119.831 33.425C118.815 32.9583 117.923 32.3167 117.157 31.5C116.407 30.6833 115.807 29.725 115.357 28.625C114.923 27.5083 114.707 26.3083 114.707 25.025C114.707 23.8083 114.923 22.6667 115.357 21.6C115.807 20.5167 116.415 19.575 117.182 18.775C117.965 17.9583 118.882 17.3167 119.931 16.85C120.981 16.3667 122.123 16.125 123.356 16.125C125.023 16.125 126.448 16.475 127.631 17.175C128.831 17.875 129.731 18.8167 130.331 20L127.756 21.9C127.306 21.0167 126.673 20.3417 125.856 19.875C125.056 19.4083 124.181 19.175 123.231 19.175C122.481 19.175 121.79 19.3333 121.156 19.65C120.54 19.9667 120.006 20.4 119.557 20.95C119.123 21.5 118.782 22.1333 118.532 22.85C118.298 23.5667 118.182 24.325 118.182 25.125C118.182 25.9583 118.315 26.7417 118.582 27.475C118.848 28.1917 119.215 28.8167 119.682 29.35C120.148 29.8833 120.698 30.3083 121.331 30.625C121.981 30.925 122.681 31.075 123.431 31.075C125.148 31.075 126.698 30.2667 128.081 28.65V27.4H124.506V24.875H130.931V34H128.081V32Z" fill="#464646"/>
<path d="M139.621 34.25C138.571 34.25 137.621 34.075 136.771 33.725C135.921 33.3583 135.196 32.8667 134.596 32.25C133.996 31.6333 133.529 30.9167 133.196 30.1C132.879 29.2833 132.721 28.425 132.721 27.525C132.721 26.5917 132.879 25.7167 133.196 24.9C133.513 24.0667 133.971 23.3417 134.571 22.725C135.171 22.0917 135.896 21.5917 136.746 21.225C137.612 20.8583 138.579 20.675 139.646 20.675C140.712 20.675 141.662 20.8583 142.495 21.225C143.345 21.5917 144.062 22.0833 144.645 22.7C145.245 23.3167 145.695 24.0333 145.995 24.85C146.312 25.6667 146.47 26.5167 146.47 27.4C146.47 27.6167 146.462 27.825 146.445 28.025C146.445 28.225 146.429 28.3917 146.395 28.525H136.271C136.321 29.0417 136.446 29.5 136.646 29.9C136.846 30.3 137.104 30.6417 137.421 30.925C137.737 31.2083 138.096 31.425 138.496 31.575C138.896 31.725 139.312 31.8 139.746 31.8C140.412 31.8 141.037 31.6417 141.621 31.325C142.22 30.9917 142.629 30.5583 142.845 30.025L145.72 30.825C145.237 31.825 144.462 32.65 143.395 33.3C142.345 33.9333 141.087 34.25 139.621 34.25ZM143.02 26.35C142.937 25.3667 142.57 24.5833 141.92 24C141.287 23.4 140.512 23.1 139.596 23.1C139.146 23.1 138.721 23.1833 138.321 23.35C137.937 23.5 137.596 23.7167 137.296 24C136.996 24.2833 136.746 24.625 136.546 25.025C136.362 25.425 136.254 25.8667 136.221 26.35H143.02Z" fill="#464646"/>
<path d="M154.586 34.25C153.536 34.25 152.586 34.075 151.736 33.725C150.886 33.3583 150.161 32.8667 149.561 32.25C148.961 31.6333 148.494 30.9167 148.161 30.1C147.844 29.2833 147.686 28.425 147.686 27.525C147.686 26.5917 147.844 25.7167 148.161 24.9C148.478 24.0667 148.936 23.3417 149.536 22.725C150.136 22.0917 150.861 21.5917 151.711 21.225C152.577 20.8583 153.544 20.675 154.611 20.675C155.677 20.675 156.627 20.8583 157.46 21.225C158.31 21.5917 159.027 22.0833 159.61 22.7C160.21 23.3167 160.66 24.0333 160.96 24.85C161.277 25.6667 161.435 26.5167 161.435 27.4C161.435 27.6167 161.427 27.825 161.41 28.025C161.41 28.225 161.394 28.3917 161.36 28.525H151.236C151.286 29.0417 151.411 29.5 151.611 29.9C151.811 30.3 152.069 30.6417 152.386 30.925C152.702 31.2083 153.061 31.425 153.461 31.575C153.861 31.725 154.277 31.8 154.711 31.8C155.377 31.8 156.002 31.6417 156.585 31.325C157.185 30.9917 157.594 30.5583 157.81 30.025L160.685 30.825C160.202 31.825 159.427 32.65 158.36 33.3C157.31 33.9333 156.052 34.25 154.586 34.25ZM157.985 26.35C157.902 25.3667 157.535 24.5833 156.885 24C156.252 23.4 155.477 23.1 154.561 23.1C154.111 23.1 153.686 23.1833 153.286 23.35C152.902 23.5 152.561 23.7167 152.261 24C151.961 24.2833 151.711 24.625 151.511 25.025C151.327 25.425 151.219 25.8667 151.186 26.35H157.985Z" fill="#464646"/>
<path d="M172.425 34L168.626 28.325L166.826 30.1V34H163.476V15.75H166.826V26.825L172.075 20.925H175.65L170.776 26.475L176 34H172.425Z" fill="#464646"/>
<path d="M56.7721 16.25H59.8219L66.5715 34H63.0217L61.3718 29.575H55.1721L53.5472 34H49.9974L56.7721 16.25ZM60.7468 27.15L58.297 20.175L55.7471 27.15H60.7468Z" fill="#2A7AE4"/>
<path d="M68.1683 15.75H71.5181V29.8C71.5181 30.2833 71.6348 30.6583 71.8681 30.925C72.1014 31.1917 72.4347 31.325 72.868 31.325C73.068 31.325 73.2847 31.2917 73.518 31.225C73.768 31.1583 74.0013 31.075 74.2179 30.975L74.6679 33.525C74.2179 33.7417 73.693 33.9083 73.093 34.025C72.493 34.1417 71.9514 34.2 71.4681 34.2C70.4182 34.2 69.6015 33.925 69.0182 33.375C68.4516 32.8083 68.1683 32.0083 68.1683 30.975V15.75Z" fill="#2A7AE4"/>
<path d="M80.1272 34.25C78.7773 34.25 77.7523 33.8167 77.0524 32.95C76.3524 32.0833 76.0024 30.8 76.0024 29.1V20.9H79.3522V28.375C79.3522 30.3917 80.0772 31.4 81.5271 31.4C82.1771 31.4 82.802 31.2083 83.402 30.825C84.0186 30.425 84.5186 29.825 84.9019 29.025V20.9H88.2517V30.15C88.2517 30.5 88.3101 30.75 88.4267 30.9C88.56 31.05 88.7684 31.1333 89.0517 31.15V34C88.7184 34.0667 88.435 34.1083 88.2017 34.125C87.9851 34.1417 87.7851 34.15 87.6018 34.15C87.0018 34.15 86.5102 34.0167 86.1268 33.75C85.7602 33.4667 85.5435 33.0833 85.4769 32.6L85.4019 31.55C84.8186 32.45 84.0686 33.125 83.152 33.575C82.2354 34.025 81.2271 34.25 80.1272 34.25Z" fill="#2A7AE4"/>
<path d="M99.3802 23.8C98.3636 23.8167 97.4553 24.0167 96.6553 24.4C95.8554 24.7667 95.2804 25.325 94.9305 26.075V34H91.5806V20.9H94.6555V23.7C94.8888 23.25 95.1638 22.85 95.4804 22.5C95.7971 22.1333 96.1387 21.8167 96.5054 21.55C96.872 21.2833 97.2387 21.0833 97.6053 20.95C97.9886 20.8 98.3553 20.725 98.7052 20.725C98.8886 20.725 99.0219 20.725 99.1052 20.725C99.2052 20.725 99.2969 20.7333 99.3802 20.75V23.8Z" fill="#2A7AE4"/>
<path d="M104.652 34.25C104.019 34.25 103.427 34.15 102.877 33.95C102.327 33.7333 101.852 33.4417 101.452 33.075C101.052 32.6917 100.736 32.25 100.502 31.75C100.286 31.25 100.177 30.7 100.177 30.1C100.177 29.4833 100.311 28.9167 100.577 28.4C100.861 27.8667 101.244 27.4167 101.727 27.05C102.227 26.6833 102.819 26.4 103.502 26.2C104.185 25.9833 104.935 25.875 105.752 25.875C106.335 25.875 106.902 25.925 107.452 26.025C108.018 26.125 108.518 26.2667 108.952 26.45V25.7C108.952 24.8333 108.702 24.1667 108.202 23.7C107.718 23.2333 106.994 23 106.027 23C105.327 23 104.644 23.125 103.977 23.375C103.31 23.625 102.627 23.9917 101.927 24.475L100.902 22.35C102.585 21.2333 104.402 20.675 106.352 20.675C108.235 20.675 109.693 21.1417 110.727 22.075C111.777 22.9917 112.302 24.325 112.302 26.075V30.15C112.302 30.5 112.36 30.75 112.477 30.9C112.61 31.05 112.818 31.1333 113.101 31.15V34C112.535 34.1167 112.043 34.175 111.627 34.175C110.993 34.175 110.502 34.0333 110.152 33.75C109.818 33.4667 109.61 33.0917 109.527 32.625L109.452 31.9C108.868 32.6667 108.16 33.25 107.327 33.65C106.494 34.05 105.602 34.25 104.652 34.25ZM105.602 31.8C106.169 31.8 106.702 31.7 107.202 31.5C107.718 31.3 108.118 31.0333 108.402 30.7C108.768 30.4167 108.952 30.1 108.952 29.75V28.25C108.552 28.1 108.118 27.9833 107.652 27.9C107.185 27.8 106.735 27.75 106.302 27.75C105.435 27.75 104.727 27.95 104.177 28.35C103.627 28.7333 103.352 29.225 103.352 29.825C103.352 30.3917 103.569 30.8667 104.002 31.25C104.435 31.6167 104.969 31.8 105.602 31.8Z" fill="#2A7AE4"/>
</svg>
